<mxfile host="app.diagrams.net" modified="2022-02-07T09:53:11.639Z" agent="5.0 (Windows NT 10.0; Win64; x64) AppleWebKit/537.36 (KHTML, like Gecko) Chrome/97.0.4692.99 Safari/537.36 Edg/97.0.1072.76" etag="vNznl7LoqpR4zx34ve-r" version="16.4.3" type="github">
  <diagram id="NLW0Iw_wc-p3dqID5BEB" name="Page-1">
    <mxGraphModel dx="942" dy="642" grid="1" gridSize="10" guides="1" tooltips="1" connect="1" arrows="1" fold="1" page="1" pageScale="1" pageWidth="827" pageHeight="1169" math="0" shadow="0">
      <root>
        <mxCell id="0" />
        <mxCell id="1" parent="0" />
        <mxCell id="gwYRnu_WxCBPZ3mRb2Zn-27" style="edgeStyle=orthogonalEdgeStyle;rounded=0;orthogonalLoop=1;jettySize=auto;html=1;exitX=0;exitY=0.5;exitDx=0;exitDy=0;entryX=1;entryY=0.5;entryDx=0;entryDy=0;fontSize=10;" parent="1" source="gwYRnu_WxCBPZ3mRb2Zn-16" target="gwYRnu_WxCBPZ3mRb2Zn-12" edge="1">
          <mxGeometry relative="1" as="geometry" />
        </mxCell>
        <mxCell id="gwYRnu_WxCBPZ3mRb2Zn-16" value="" style="whiteSpace=wrap;html=1;aspect=fixed;fontSize=10;" parent="1" vertex="1">
          <mxGeometry x="540" y="65" width="165" height="165" as="geometry" />
        </mxCell>
        <mxCell id="gwYRnu_WxCBPZ3mRb2Zn-3" value="" style="edgeStyle=orthogonalEdgeStyle;rounded=0;orthogonalLoop=1;jettySize=auto;html=1;fontSize=10;" parent="1" source="gwYRnu_WxCBPZ3mRb2Zn-1" target="gwYRnu_WxCBPZ3mRb2Zn-2" edge="1">
          <mxGeometry relative="1" as="geometry" />
        </mxCell>
        <mxCell id="gwYRnu_WxCBPZ3mRb2Zn-1" value="Sentinel-3 L1a数据" style="rounded=0;whiteSpace=wrap;html=1;fontSize=10;" parent="1" vertex="1">
          <mxGeometry x="290" y="60" width="120" height="60" as="geometry" />
        </mxCell>
        <mxCell id="gwYRnu_WxCBPZ3mRb2Zn-2" value="高度计系统改正" style="rounded=0;whiteSpace=wrap;html=1;fontSize=10;" parent="1" vertex="1">
          <mxGeometry x="290" y="140" width="120" height="60" as="geometry" />
        </mxCell>
        <mxCell id="gwYRnu_WxCBPZ3mRb2Zn-7" value="" style="edgeStyle=orthogonalEdgeStyle;rounded=0;orthogonalLoop=1;jettySize=auto;html=1;fontSize=10;" parent="1" target="gwYRnu_WxCBPZ3mRb2Zn-6" edge="1">
          <mxGeometry relative="1" as="geometry">
            <mxPoint x="350" y="200" as="sourcePoint" />
          </mxGeometry>
        </mxCell>
        <mxCell id="gwYRnu_WxCBPZ3mRb2Zn-9" value="" style="edgeStyle=orthogonalEdgeStyle;rounded=0;orthogonalLoop=1;jettySize=auto;html=1;fontSize=10;" parent="1" source="gwYRnu_WxCBPZ3mRb2Zn-6" target="gwYRnu_WxCBPZ3mRb2Zn-8" edge="1">
          <mxGeometry relative="1" as="geometry" />
        </mxCell>
        <mxCell id="gwYRnu_WxCBPZ3mRb2Zn-6" value="残余视频相位改正" style="rounded=0;whiteSpace=wrap;html=1;fontSize=10;" parent="1" vertex="1">
          <mxGeometry x="290" y="230" width="120" height="60" as="geometry" />
        </mxCell>
        <mxCell id="gwYRnu_WxCBPZ3mRb2Zn-26" style="edgeStyle=orthogonalEdgeStyle;rounded=0;orthogonalLoop=1;jettySize=auto;html=1;exitX=0.5;exitY=1;exitDx=0;exitDy=0;entryX=0.5;entryY=0;entryDx=0;entryDy=0;fontSize=10;" parent="1" source="gwYRnu_WxCBPZ3mRb2Zn-8" target="gwYRnu_WxCBPZ3mRb2Zn-12" edge="1">
          <mxGeometry relative="1" as="geometry" />
        </mxCell>
        <mxCell id="gwYRnu_WxCBPZ3mRb2Zn-8" value="方位向补零" style="rounded=0;whiteSpace=wrap;html=1;fontSize=10;" parent="1" vertex="1">
          <mxGeometry x="290" y="320" width="120" height="60" as="geometry" />
        </mxCell>
        <mxCell id="gwYRnu_WxCBPZ3mRb2Zn-19" value="" style="edgeStyle=orthogonalEdgeStyle;rounded=0;orthogonalLoop=1;jettySize=auto;html=1;fontSize=10;" parent="1" source="gwYRnu_WxCBPZ3mRb2Zn-12" target="gwYRnu_WxCBPZ3mRb2Zn-18" edge="1">
          <mxGeometry relative="1" as="geometry" />
        </mxCell>
        <mxCell id="gwYRnu_WxCBPZ3mRb2Zn-12" value="反向投影算法" style="rounded=0;whiteSpace=wrap;html=1;fontSize=10;" parent="1" vertex="1">
          <mxGeometry x="290" y="405" width="120" height="60" as="geometry" />
        </mxCell>
        <mxCell id="gwYRnu_WxCBPZ3mRb2Zn-14" value="IFFT" style="text;html=1;strokeColor=none;fillColor=none;align=center;verticalAlign=middle;whiteSpace=wrap;rounded=0;fontSize=10;" parent="1" vertex="1">
          <mxGeometry x="340" y="380" width="60" height="30" as="geometry" />
        </mxCell>
        <mxCell id="gwYRnu_WxCBPZ3mRb2Zn-21" value="" style="edgeStyle=orthogonalEdgeStyle;rounded=0;orthogonalLoop=1;jettySize=auto;html=1;fontSize=10;" parent="1" source="gwYRnu_WxCBPZ3mRb2Zn-18" target="gwYRnu_WxCBPZ3mRb2Zn-20" edge="1">
          <mxGeometry relative="1" as="geometry" />
        </mxCell>
        <mxCell id="gwYRnu_WxCBPZ3mRb2Zn-18" value="方位向相干累加" style="rounded=0;whiteSpace=wrap;html=1;fontSize=10;" parent="1" vertex="1">
          <mxGeometry x="290" y="490" width="120" height="60" as="geometry" />
        </mxCell>
        <mxCell id="gwYRnu_WxCBPZ3mRb2Zn-23" value="" style="edgeStyle=orthogonalEdgeStyle;rounded=0;orthogonalLoop=1;jettySize=auto;html=1;fontSize=10;" parent="1" source="gwYRnu_WxCBPZ3mRb2Zn-20" target="gwYRnu_WxCBPZ3mRb2Zn-22" edge="1">
          <mxGeometry relative="1" as="geometry" />
        </mxCell>
        <mxCell id="gwYRnu_WxCBPZ3mRb2Zn-20" value="单视、多视" style="rounded=0;whiteSpace=wrap;html=1;fontSize=10;" parent="1" vertex="1">
          <mxGeometry x="290" y="580" width="120" height="60" as="geometry" />
        </mxCell>
        <mxCell id="gwYRnu_WxCBPZ3mRb2Zn-22" value="L1b回波波形" style="rounded=0;whiteSpace=wrap;html=1;fontSize=10;" parent="1" vertex="1">
          <mxGeometry x="290" y="670" width="120" height="60" as="geometry" />
        </mxCell>
        <mxCell id="gwYRnu_WxCBPZ3mRb2Zn-24" value="距离徙动改正" style="rounded=0;whiteSpace=wrap;html=1;fontSize=10;" parent="1" vertex="1">
          <mxGeometry x="562.5" y="80" width="120" height="60" as="geometry" />
        </mxCell>
        <mxCell id="gwYRnu_WxCBPZ3mRb2Zn-25" value="相对距离相位改正" style="rounded=0;whiteSpace=wrap;html=1;fontSize=10;" parent="1" vertex="1">
          <mxGeometry x="562.5" y="150" width="120" height="60" as="geometry" />
        </mxCell>
        <mxCell id="gwYRnu_WxCBPZ3mRb2Zn-28" value="距离向FFT" style="text;html=1;strokeColor=none;fillColor=none;align=center;verticalAlign=middle;whiteSpace=wrap;rounded=0;fontSize=10;" parent="1" vertex="1">
          <mxGeometry x="341" y="200" width="80" height="30" as="geometry" />
        </mxCell>
      </root>
    </mxGraphModel>
  </diagram>
</mxfile>
